<svg width="24" height="24" viewBox="0 0 24 24" fill="none" xmlns="http://www.w3.org/2000/svg">
  <path
    d="M11.7357 14.7131C12.6779 13.9211 13.3538 12.8585 13.6716 11.6694C13.9894 10.4802 13.9338 9.22211 13.5124 8.06563C13.0909 6.90916 12.3239 5.9103 11.3155 5.20451C10.3071 4.49871 9.10597 4.12015 7.87509 4.12015C6.6442 4.12015 5.4431 4.49871 4.43467 5.20451C3.42624 5.9103 2.65928 6.90916 2.2378 8.06563C1.81632 9.22211 1.76072 10.4802 2.07854 11.6694C2.39636 12.8585 3.07222 13.9211 4.01446 14.7131C2.54313 15.3784 1.26807 16.4116 0.312273 17.7131C0.135738 17.9537 0.0619957 18.2545 0.107268 18.5495C0.152541 18.8444 0.313119 19.1093 0.553679 19.2858C0.794239 19.4623 1.09507 19.5361 1.39 19.4908C1.68493 19.4455 1.9498 19.2849 2.12634 19.0444C2.78797 18.1408 3.6533 17.4058 4.65212 16.8992C5.65095 16.3926 6.75513 16.1286 7.87509 16.1286C8.99504 16.1286 10.0992 16.3926 11.098 16.8992C12.0969 17.4058 12.9622 18.1408 13.6238 19.0444C13.8004 19.2851 14.0653 19.4458 14.3603 19.4911C14.6553 19.5365 14.9563 19.4628 15.197 19.2863C15.4376 19.1097 15.5983 18.8448 15.6437 18.5498C15.6891 18.2548 15.6154 17.9538 15.4388 17.7131C14.4825 16.4118 13.2072 15.3787 11.7357 14.7131ZM4.12509 10.125C4.12509 9.38333 4.34502 8.65831 4.75707 8.04163C5.16913 7.42494 5.7548 6.94429 6.44002 6.66047C7.12525 6.37664 7.87925 6.30237 8.60667 6.44707C9.3341 6.59176 10.0023 6.94892 10.5267 7.47336C11.0512 7.99781 11.4083 8.666 11.553 9.39343C11.6977 10.1209 11.6235 10.8749 11.3396 11.5601C11.0558 12.2453 10.5752 12.831 9.95847 13.243C9.34179 13.6551 8.61677 13.875 7.87509 13.875C6.88052 13.875 5.9267 13.4799 5.22343 12.7767C4.52017 12.0734 4.12509 11.1196 4.12509 10.125ZM23.447 19.2816C23.3279 19.3691 23.1927 19.4323 23.0492 19.4675C22.9056 19.5028 22.7566 19.5094 22.6105 19.4871C22.4644 19.4647 22.3241 19.4137 22.1977 19.3371C22.0713 19.2605 21.9613 19.1598 21.8738 19.0406C21.2106 18.1387 20.3449 17.4051 19.3464 16.8987C18.348 16.3923 17.2446 16.1273 16.1251 16.125C15.8267 16.125 15.5406 16.0065 15.3296 15.7955C15.1186 15.5845 15.0001 15.2984 15.0001 15C15.0001 14.7016 15.1186 14.4155 15.3296 14.2045C15.5406 13.9935 15.8267 13.875 16.1251 13.875C16.6772 13.8744 17.2224 13.7518 17.7217 13.5161C18.221 13.2803 18.6621 12.9372 19.0135 12.5113C19.3648 12.0854 19.6178 11.5871 19.7543 11.0521C19.8908 10.5171 19.9075 9.95851 19.8031 9.41631C19.6988 8.87411 19.476 8.36164 19.1506 7.91551C18.8253 7.46938 18.4055 7.10059 17.9211 6.8355C17.4368 6.5704 16.8999 6.41553 16.3487 6.38196C15.7976 6.34838 15.2458 6.43692 14.7329 6.64126C14.5955 6.69753 14.4483 6.72603 14.2998 6.72514C14.1514 6.72424 14.0045 6.69397 13.8678 6.63606C13.7311 6.57814 13.6072 6.49374 13.5033 6.38772C13.3993 6.28169 13.3174 6.15614 13.2622 6.0183C13.207 5.88046 13.1797 5.73305 13.1817 5.58459C13.1838 5.43613 13.2152 5.28954 13.2742 5.15328C13.3331 5.01702 13.4185 4.89378 13.5254 4.79067C13.6322 4.68756 13.7584 4.60662 13.8966 4.55251C15.2207 4.0224 16.6903 3.98127 18.0419 4.4365C19.3935 4.89173 20.5388 5.81354 21.2723 7.03666C22.0059 8.25977 22.2798 9.7042 22.0448 11.1109C21.8099 12.5177 21.0816 13.7947 19.9904 14.7131C21.4617 15.3784 22.7368 16.4116 23.6926 17.7131C23.8674 17.9539 23.9396 18.2541 23.8936 18.5481C23.8476 18.842 23.687 19.1058 23.447 19.2816Z"
    fill="currentColor" />
</svg>