<svg width="24" height="24" viewBox="0 0 24 24" fill="none" xmlns="http://www.w3.org/2000/svg">
  <path
    d="M17.5594 14.9119C17.4049 15.6762 16.9912 16.3637 16.3882 16.8581C15.7851 17.3525 15.0298 17.6234 14.25 17.625C12.1622 17.6228 10.1604 16.7924 8.68405 15.316C7.20768 13.8396 6.37728 11.8379 6.37505 9.75001C6.37666 8.97023 6.64757 8.21494 7.14196 7.61191C7.63634 7.00887 8.32385 6.59512 9.08817 6.44063C9.3298 6.39282 9.58044 6.42563 9.80162 6.53401C10.0228 6.6424 10.2023 6.82038 10.3125 7.04063L11.3888 9.19688C11.4771 9.37402 11.517 9.5713 11.5047 9.76883C11.4924 9.96635 11.4281 10.1571 11.3185 10.3219L10.5197 11.52C10.931 12.3775 11.6225 13.0691 12.48 13.4803L13.6782 12.6816C13.8429 12.5719 14.0337 12.5077 14.2312 12.4954C14.4288 12.483 14.626 12.523 14.8032 12.6113L16.9594 13.6875C17.1797 13.7978 17.3577 13.9773 17.466 14.1984C17.5744 14.4196 17.6072 14.6703 17.5594 14.9119ZM22.125 12C22.1254 13.7344 21.6803 15.4397 20.8323 16.9526C19.9843 18.4655 18.7619 19.7352 17.2823 20.6401C15.8027 21.5449 14.1155 22.0544 12.3824 22.1199C10.6493 22.1854 8.92841 21.8046 7.38474 21.0141L4.34442 22.0313C4.01345 22.1428 3.6579 22.1597 3.31784 22.08C2.97779 22.0003 2.66675 21.8272 2.41978 21.5803C2.17281 21.3333 1.99973 21.0223 1.92005 20.6822C1.84037 20.3422 1.85725 19.9866 1.9688 19.6556L2.98224 16.6153C2.28632 15.2522 1.9085 13.749 1.87718 12.2188C1.84585 10.6886 2.16185 9.17119 2.8014 7.78069C3.44095 6.3902 4.38741 5.16279 5.56962 4.19075C6.75184 3.21871 8.13904 2.52733 9.62693 2.1686C11.1148 1.80988 12.6647 1.79313 14.16 2.11963C15.6553 2.44612 17.0571 3.10737 18.26 4.05364C19.4629 4.99991 20.4357 6.20658 21.1052 7.58293C21.7746 8.95928 22.1233 10.4695 22.125 12ZM19.875 12C19.8746 10.7921 19.5963 9.60045 19.0616 8.51729C18.5269 7.43414 17.7503 6.4885 16.7917 5.75353C15.8331 5.01855 14.7182 4.51395 13.5334 4.27875C12.3486 4.04354 11.1256 4.08405 9.95894 4.39713C8.79229 4.71021 7.7133 5.28748 6.80543 6.08427C5.89757 6.88106 5.18517 7.87602 4.72334 8.99217C4.26152 10.1083 4.06264 11.3158 4.14211 12.5211C4.22157 13.7264 4.57725 14.8973 5.18161 15.9431C5.26149 16.081 5.31116 16.2344 5.32732 16.3929C5.34348 16.5515 5.32577 16.7116 5.27536 16.8628L4.34442 19.6556L7.13724 18.7247C7.25212 18.6864 7.3724 18.6668 7.49349 18.6666C7.69107 18.6669 7.88508 18.7193 8.05599 18.8184C9.2532 19.5112 10.6117 19.8764 11.9949 19.8773C13.3781 19.8782 14.7371 19.5148 15.9353 18.8236C17.1334 18.1324 18.1283 17.1378 18.8199 15.9399C19.5115 14.7421 19.8755 13.3832 19.875 12Z"
    fill="currentColor" />
</svg>